<mxfile host="app.diagrams.net" modified="2021-08-23T12:06:46.498Z" agent="5.0 (Windows NT 10.0; Win64; x64) AppleWebKit/537.36 (KHTML, like Gecko) Chrome/92.0.4515.159 Safari/537.36 Edg/92.0.902.78" etag="jSSLxBM5rq8a-9iuMBGT" version="14.9.6" type="github">
  <diagram id="nPe_g1tJr_wAGXh4EOav" name="Page-1">
    <mxGraphModel dx="1422" dy="914" grid="1" gridSize="10" guides="1" tooltips="1" connect="1" arrows="1" fold="1" page="1" pageScale="1" pageWidth="827" pageHeight="1169" math="0" shadow="0">
      <root>
        <mxCell id="0" />
        <mxCell id="1" parent="0" />
        <mxCell id="unfUZdIBzcUHCURAGLTu-12" value="Blackbox" style="whiteSpace=wrap;html=1;aspect=fixed;fillColor=#dae8fc;strokeColor=#6c8ebf;" vertex="1" parent="1">
          <mxGeometry x="430" y="110" width="240" height="240" as="geometry" />
        </mxCell>
        <mxCell id="unfUZdIBzcUHCURAGLTu-9" style="edgeStyle=orthogonalEdgeStyle;rounded=0;orthogonalLoop=1;jettySize=auto;html=1;fontColor=#00060D;" edge="1" parent="1" source="unfUZdIBzcUHCURAGLTu-1" target="unfUZdIBzcUHCURAGLTu-2">
          <mxGeometry relative="1" as="geometry" />
        </mxCell>
        <mxCell id="unfUZdIBzcUHCURAGLTu-1" value="Actor" style="shape=umlActor;verticalLabelPosition=bottom;verticalAlign=top;html=1;outlineConnect=0;" vertex="1" parent="1">
          <mxGeometry x="70" y="165.4" width="30" height="60" as="geometry" />
        </mxCell>
        <mxCell id="unfUZdIBzcUHCURAGLTu-8" style="edgeStyle=orthogonalEdgeStyle;rounded=0;orthogonalLoop=1;jettySize=auto;html=1;" edge="1" parent="1" source="unfUZdIBzcUHCURAGLTu-2" target="unfUZdIBzcUHCURAGLTu-3">
          <mxGeometry relative="1" as="geometry" />
        </mxCell>
        <mxCell id="unfUZdIBzcUHCURAGLTu-2" value="Report" style="shadow=0;dashed=0;html=1;strokeColor=none;fillColor=#4495D1;labelPosition=center;verticalLabelPosition=bottom;verticalAlign=top;align=center;outlineConnect=0;shape=mxgraph.veeam.2d.report;" vertex="1" parent="1">
          <mxGeometry x="190" y="170" width="36.8" height="50.8" as="geometry" />
        </mxCell>
        <mxCell id="unfUZdIBzcUHCURAGLTu-10" style="edgeStyle=orthogonalEdgeStyle;rounded=0;orthogonalLoop=1;jettySize=auto;html=1;fontColor=#00060D;" edge="1" parent="1" source="unfUZdIBzcUHCURAGLTu-3" target="unfUZdIBzcUHCURAGLTu-4">
          <mxGeometry relative="1" as="geometry" />
        </mxCell>
        <mxCell id="unfUZdIBzcUHCURAGLTu-3" value="Rahmenapplikation (RAP)" style="html=1;verticalLabelPosition=bottom;align=center;labelBackgroundColor=#ffffff;verticalAlign=top;strokeWidth=2;strokeColor=#0080F0;shadow=0;dashed=0;shape=mxgraph.ios7.icons.window;" vertex="1" parent="1">
          <mxGeometry x="290" y="155.4" width="100" height="80" as="geometry" />
        </mxCell>
        <mxCell id="unfUZdIBzcUHCURAGLTu-11" style="edgeStyle=orthogonalEdgeStyle;rounded=0;orthogonalLoop=1;jettySize=auto;html=1;fontColor=#00060D;" edge="1" parent="1" source="unfUZdIBzcUHCURAGLTu-4" target="unfUZdIBzcUHCURAGLTu-5">
          <mxGeometry relative="1" as="geometry" />
        </mxCell>
        <mxCell id="unfUZdIBzcUHCURAGLTu-4" value="Backend" style="verticalAlign=top;verticalLabelPosition=bottom;labelPosition=center;align=center;html=1;outlineConnect=0;fillColor=#CCCCCC;strokeColor=#6881B3;gradientColor=none;gradientDirection=north;strokeWidth=2;shape=mxgraph.networks.desktop_pc;fontColor=#00060D;" vertex="1" parent="1">
          <mxGeometry x="460" y="151.95" width="40" height="86.9" as="geometry" />
        </mxCell>
        <mxCell id="unfUZdIBzcUHCURAGLTu-5" value="Database&lt;br&gt;" style="shape=cylinder3;whiteSpace=wrap;html=1;boundedLbl=1;backgroundOutline=1;size=15;" vertex="1" parent="1">
          <mxGeometry x="590" y="155.4" width="60" height="80" as="geometry" />
        </mxCell>
      </root>
    </mxGraphModel>
  </diagram>
</mxfile>
